<?xml version="1.0" encoding="UTF-8"?>
<!DOCTYPE svg PUBLIC "-//W3C//DTD SVG 1.1//EN" "http://www.w3.org/Graphics/SVG/1.1/DTD/svg11.dtd">
<!-- Creator: CorelDRAW -->
<svg xmlns="http://www.w3.org/2000/svg" xml:space="preserve" width="30mm" height="30mm" style="shape-rendering:geometricPrecision; text-rendering:geometricPrecision; image-rendering:optimizeQuality; fill-rule:evenodd; clip-rule:evenodd"
viewBox="0 0 30 30"
 xmlns:xlink="http://www.w3.org/1999/xlink">
 <defs>
  <style type="text/css">
   <![CDATA[
    .str0 {stroke:#0093DD;stroke-width:0.2}
    .str1 {stroke:#0093DD;stroke-width:0.7056}
    .fil2 {fill:none}
    .fil1 {fill:#0093DD}
    .fil0 {fill:#DA251D;fill-rule:nonzero}
   ]]>
  </style>
 </defs>
 <g id="图层_x0020_1">
  <metadata id="CorelCorpID_0Corel-Layer"/>
  <g id="_370828824">
   <g>
    <path id="_370825752" class="fil0" d="M8.6549 12.2303c0.7962,0.7905 1.6242,1.4488 2.4834,1.9776 0.9453,0.5711 1.2824,1.4066 1.0181,2.5037 -0.265,1.0999 -0.829,1.9804 -1.6914,2.6387 -0.8071,0.6161 -1.7984,0.9227 -2.9716,0.9227 -1.1279,0 -1.9286,-0.2841 -2.404,-0.858 -0.5826,-0.7033 -0.758,-1.536 -0.5249,-2.5037l0.1593 -0.661 1.6212 0 -0.143 0.5935c-0.1694,0.7033 -0.1073,1.2322 0.184,1.5838 0.2912,0.3516 0.7185,0.526 1.2839,0.526 0.752,0 1.3566,-0.1744 1.8172,-0.526 0.5196,-0.3967 0.8516,-0.9002 1,-1.5163 0.1592,-0.661 -0.042,-1.1871 -0.6051,-1.5837 -1.0068,-0.7033 -1.9311,-1.4488 -2.7747,-2.2421 -0.6143,-0.571 -0.8264,-1.339 -0.6414,-2.3067 0.185,-0.9677 0.7357,-1.7807 1.6463,-2.439 0.8523,-0.6161 1.7022,-0.9227 2.5474,-0.9227 1.0347,0 1.7681,0.2644 2.2068,0.7905 0.5453,0.6583 0.6532,1.5838 0.3198,2.7681l-1.6213 0c0.2728,-0.7455 0.2293,-1.339 -0.1371,-1.7779 -0.2534,-0.3094 -0.6168,-0.4613 -1.086,-0.4613 -0.4693,0 -0.9059,0.1519 -1.3084,0.4613 -0.5189,0.3938 -0.8406,0.8552 -0.968,1.3841 -0.1375,0.571 0.0581,1.1196 0.5895,1.6484z"/>
    <g>
     <polygon id="_47098608" class="fil1 str0" points="15.5777,10.9315 16.7237,10.9315 13.1632,24.0723 12.0172,24.0723 "/>
     <polygon id="_47098416" class="fil1 str0" points="21.5753,8.088 22.7213,8.088 19.1608,21.2288 18.0148,21.2288 "/>
     <polygon id="_47096304" class="fil1 str0" points="14.7476,15.3682 20.0853,15.3682 20.0853,16.4439 14.7476,16.4439 "/>
    </g>
    <path id="_47096976" class="fil2 str1" d="M10.2686 23.3405c-4.5462,-1.1933 -7.5497,-4.4244 -7.5497,-8.1249 0,-4.9359 5.2687,-9.0924 11.7656,-9.2818 3.048,-0.0889 5.9812,0.7259 8.1731,2.2705"/>
    <path id="_47096544" class="fil2 str1" d="M24.3418 9.2472c1.8353,1.3948 2.8769,3.2596 2.9392,5.2616 0.1464,4.7039 -5.0356,8.9282 -11.572,9.4334 -1.1721,0.0905 -2.345,0.055 -3.4728,-0.1049"/>
   </g>
   <rect id="_370827216" class="fil2" width="30" height="30"/>
  </g>
 </g>
</svg>
